<?xml version="1.0" encoding="UTF-8" standalone="no"?>
<svg
   xmlns:dc="http://purl.org/dc/elements/1.1/"
   xmlns:cc="http://creativecommons.org/ns#"
   xmlns:rdf="http://www.w3.org/1999/02/22-rdf-syntax-ns#"
   xmlns:svg="http://www.w3.org/2000/svg"
   xmlns="http://www.w3.org/2000/svg"
   xmlns:sodipodi="http://sodipodi.sourceforge.net/DTD/sodipodi-0.dtd"
   xmlns:inkscape="http://www.inkscape.org/namespaces/inkscape"
   id="Capa_1"
   data-name="Capa 1"
   viewBox="0 0 210 89"
   version="1.1"
   sodipodi:docname="ARGOSS_white.svg"
   inkscape:version="0.92.4 (5da689c313, 2019-01-14)">
  <metadata
     id="metadata135">
    <rdf:RDF>
      <cc:Work
         rdf:about="">
        <dc:format>image/svg+xml</dc:format>
        <dc:type
           rdf:resource="http://purl.org/dc/dcmitype/StillImage" />
        <dc:title>ARGOSS</dc:title>
      </cc:Work>
    </rdf:RDF>
  </metadata>
  <sodipodi:namedview
     pagecolor="#ffffff"
     bordercolor="#666666"
     borderopacity="1"
     objecttolerance="10"
     gridtolerance="10"
     guidetolerance="10"
     inkscape:pageopacity="0"
     inkscape:pageshadow="2"
     inkscape:window-width="1920"
     inkscape:window-height="1001"
     id="namedview133"
     showgrid="false"
     inkscape:zoom="2.0761905"
     inkscape:cx="105"
     inkscape:cy="44.5"
     inkscape:window-x="-9"
     inkscape:window-y="-9"
     inkscape:window-maximized="1"
     inkscape:current-layer="Capa_1" />
  <defs
     id="defs4">
    <style
       id="style2">.cls-1{fill:#009fe3;}.cls-2{fill:#74af27;}.cls-3{fill:#1d1d1b;}.cls-4{fill:#6cb63f;}</style>
  </defs>
  <title
     id="title6">ARGOSS</title>
  <path
     class="cls-1"
     d="M29.52061,3.5a28.48059,28.48059,0,0,0-11.34046,54.61,11.39634,11.39634,0,1,0,1.36866-6.61219,21.91093,21.91093,0,0,1,9.9718-41.4234c12.07715,0,21.92511,12.11005,21.92511,21.91541v-.01447a3.28967,3.28967,0,1,0,6.57934.00293A28.50239,28.50239,0,0,0,29.52061,3.5Zm0,48.68811A4.8216,4.8216,0,1,1,24.69926,57.01,4.82164,4.82164,0,0,1,29.52061,52.18812ZM58.02506,31.97834l.00031.01154v-.01447Z"
     id="path8"
     style="fill:#ffffff" />
  <path
     class="cls-2"
     d="M40.86112,30.89009a11.39606,11.39606,0,1,0-1.36853,6.61206,21.91053,21.91053,0,0,1-9.972,41.42279c-12.07715,0-21.92505-12.10993-21.92505-21.915v.01526a3.28971,3.28971,0,1,0-6.57941-.00312,28.49729,28.49729,0,1,0,39.845-26.132ZM29.52061,36.81147A4.82138,4.82138,0,1,1,34.342,31.98988,4.82141,4.82141,0,0,1,29.52061,36.81147ZM1.01585,57.02522l.0003-.00312L1.01585,57.01Z"
     id="path10"
     style="fill:#ffffff" />
  <path
     class="cls-3"
     d="M74.2275,27.392a9.81766,9.81766,0,0,1,.79986-3.9439A10.43092,10.43092,0,0,1,80.48844,17.987a10.32888,10.32888,0,0,1,7.971,0,10.35454,10.35454,0,0,1,5.48841,5.46108,9.83188,9.83188,0,0,1,.80006,3.9439V41.78937a2.967,2.967,0,0,1-2.92376,2.97884,2.6689,2.6689,0,0,1-1.241-.33121,5.43453,5.43453,0,0,1-1.07562-.71709,10.4848,10.4848,0,0,1-5.01994,1.269A10.016,10.016,0,0,1,80.516,44.1888a10.35608,10.35608,0,0,1-5.48861-5.46108,9.81137,9.81137,0,0,1-.79986-3.9439ZM80.185,34.78382A4.04708,4.04708,0,0,0,81.45371,37.79a4.18509,4.18509,0,0,0,3.0339,1.2412A4.24717,4.24717,0,0,0,87.494,37.8728a4.1547,4.1547,0,0,0,1.35135-2.86853V27.392a3.8929,3.8929,0,0,0-.35833-1.65481,4.69811,4.69811,0,0,0-.93774-1.35135,4.19956,4.19956,0,0,0-1.37909-.9102,4.3601,4.3601,0,0,0-1.68256-.331,4.1598,4.1598,0,0,0-3.06144,1.24121A4.09394,4.09394,0,0,0,80.185,27.392Z"
     id="path12"
     style="fill:#ffffff" />
  <path
     class="cls-3"
     d="M98.16729,20.38645a2.88321,2.88321,0,0,1,.855-2.12371,2.81922,2.81922,0,0,1,2.06863-.85492,2.9262,2.9262,0,0,1,2.31683,1.10315,10.461,10.461,0,0,1,5.18531-1.32385,18.05922,18.05922,0,0,1,3.33717.607,7.05578,7.05578,0,0,1,2.28949,1.21326,2.6725,2.6725,0,0,1,1.04788,2.20647,2.86055,2.86055,0,0,1-.85492,2.15124,2.93493,2.93493,0,0,1-2.12391.82764,3.12264,3.12264,0,0,1-1.765-.5517,3.73,3.73,0,0,0-.993-.38608,5.10989,5.10989,0,0,0-1.10311-.11031,4.166,4.166,0,0,0-3.03392,1.18614,4.30216,4.30216,0,0,0-1.32381,2.89565V42.00982a2.92195,2.92195,0,0,1-2.979,2.979,2.96746,2.96746,0,0,1-2.9236-2.979Z"
     id="path14"
     style="fill:#ffffff" />
  <path
     class="cls-3"
     d="M115.92958,27.392a9.82124,9.82124,0,0,1,.7999-3.9439,10.432,10.432,0,0,1,5.46124-5.46108,9.96446,9.96446,0,0,1,3.999-.79989,9.83117,9.83117,0,0,1,3.9439.79989,10.41944,10.41944,0,0,1,3.255,2.20648,10.79406,10.79406,0,0,1,2.234,3.2546,9.54474,9.54474,0,0,1,.82764,3.9439V43.55433a9.73927,9.73927,0,0,1-.82764,3.97205,10.371,10.371,0,0,1-2.234,3.25415,10.66583,10.66583,0,0,1-3.255,2.17858,9.82774,9.82774,0,0,1-3.9439.79985,2.92028,2.92028,0,0,1-2.97846-2.97843,2.81632,2.81632,0,0,1,.85455-2.06879,2.88108,2.88108,0,0,1,2.12391-.855,4.10269,4.10269,0,0,0,2.84095-1.13028,4.18046,4.18046,0,0,0,1.40683-2.73085,9.37061,9.37061,0,0,1-4.24778.99322,10.01692,10.01692,0,0,1-3.97168-.80006,10.35773,10.35773,0,0,1-5.48857-5.46108,9.815,9.815,0,0,1-.7999-3.9439Zm5.90223,7.39183a3.86743,3.86743,0,0,0,.35891,1.65482A4.65662,4.65662,0,0,0,123.1285,37.79a4.18611,4.18611,0,0,0,1.379.9102,4.35255,4.35255,0,0,0,1.68218.331,4.29282,4.29282,0,0,0,4.30244-4.02692V27.392a4.05036,4.05036,0,0,0-1.26857-3.00616,4.42986,4.42986,0,0,0-6.15058,0,4.09534,4.09534,0,0,0-1.24121,3.00616Z"
     id="path16"
     style="fill:#ffffff" />
  <path
     class="cls-3"
     d="M139.70482,27.392a9.82759,9.82759,0,0,1,.79907-3.9439,10.4309,10.4309,0,0,1,5.46165-5.46108,10.328,10.328,0,0,1,7.97066,0,10.35366,10.35366,0,0,1,5.48857,5.46108,9.83479,9.83479,0,0,1,.80031,3.9439v7.39183a9.82848,9.82848,0,0,1-.80031,3.9439,10.43061,10.43061,0,0,1-5.46046,5.46108,10.32791,10.32791,0,0,1-7.97144,0,10.35663,10.35663,0,0,1-5.489-5.46108,9.8213,9.8213,0,0,1-.79907-3.9439Zm5.95725,7.39183A4.04512,4.04512,0,0,0,146.931,37.79a4.18415,4.18415,0,0,0,3.03391,1.2412,4.229,4.229,0,0,0,3.11671-1.2412,4.09379,4.09379,0,0,0,1.2408-3.00617V27.392a3.89588,3.89588,0,0,0-.35813-1.65481,4.70738,4.70738,0,0,0-.93815-1.35135,4.20151,4.20151,0,0,0-1.37868-.9102,4.3614,4.3614,0,0,0-1.68255-.331,4.16141,4.16141,0,0,0-3.062,1.24121,4.095,4.095,0,0,0-1.24084,3.00616Z"
     id="path18"
     style="fill:#ffffff" />
  <path
     class="cls-1"
     d="M163.58937,25.3511a7.41431,7.41431,0,0,1,2.73044-5.87486,9.6,9.6,0,0,1,3.08934-1.68214,12.0544,12.0544,0,0,1,3.88887-.607,12.48663,12.48663,0,0,1,3.30964.5517,12.97231,12.97231,0,0,1,2.81284,1.32381,6.88583,6.88583,0,0,1,2.37227,2.53748,3.19144,3.19144,0,0,1,.49683,1.65482,2.86507,2.86507,0,0,1-.82763,2.06843,2.7272,2.7272,0,0,1-2.04147.85517,3.03593,3.03593,0,0,1-1.26817-.30347,2.76369,2.76369,0,0,1-1.10332-.91025v.05529a5.19754,5.19754,0,0,0-1.59979-1.43416,4.56385,4.56385,0,0,0-2.1512-.44132,5.28374,5.28374,0,0,0-2.75817.63427,1.83534,1.83534,0,0,0-1.04829,1.57221,1.7922,1.7922,0,0,0,1.02054,1.76517,6.45552,6.45552,0,0,0,2.78592.49638,14.02926,14.02926,0,0,1,3.97165.5517,9.69449,9.69449,0,0,1,3.28189,1.65481,7.87788,7.87788,0,0,1,2.20672,2.70291,8.30074,8.30074,0,0,1,.79985,3.75094,8.3564,8.3564,0,0,1-.82722,3.8338,7.80535,7.80535,0,0,1-2.234,2.7029,9.93593,9.93593,0,0,1-3.31046,1.62729,14.30376,14.30376,0,0,1-3.99856.55186q-.44253,0-1.65523-.13867A10.30256,10.30256,0,0,1,168.83,44.106a11.17352,11.17352,0,0,1-3.00658-1.903,9.70165,9.70165,0,0,1-2.50974-3.55786,2.45612,2.45612,0,0,1-.22028-1.10332,2.9077,2.9077,0,0,1,.85455-2.09617,2.83873,2.83873,0,0,1,2.12387-.88267,2.73335,2.73335,0,0,1,1.65482.52433,3.10842,3.10842,0,0,1,1.04788,1.29607A3.94984,3.94984,0,0,0,170.65,38.34164a5.68154,5.68154,0,0,0,2.648.68955,7.45387,7.45387,0,0,0,3.06124-.5794A2.166,2.166,0,0,0,177.656,36.273a2.1794,2.1794,0,0,0-1.24125-2.17894,7.3742,7.3742,0,0,0-3.11668-.5792,17.27536,17.27536,0,0,1-3.88887-.41361,8.426,8.426,0,0,1-3.08934-1.35155,6.19079,6.19079,0,0,1-2.01336-2.50978A9.35355,9.35355,0,0,1,163.58937,25.3511Z"
     id="path20"
     style="fill:#ffffff" />
  <path
     class="cls-2"
     d="M186.59126,25.3511a7.41281,7.41281,0,0,1,2.73081-5.87486,9.59153,9.59153,0,0,1,3.08938-1.68214,12.05158,12.05158,0,0,1,3.88842-.607,12.487,12.487,0,0,1,3.30968.5517,12.97468,12.97468,0,0,1,2.81321,1.32381,6.88463,6.88463,0,0,1,2.37189,2.53748,3.1913,3.1913,0,0,1,.4968,1.65482,2.86483,2.86483,0,0,1-.82718,2.06843,2.7285,2.7285,0,0,1-2.04151.85517,3.03429,3.03429,0,0,1-1.26813-.30347,2.76775,2.76775,0,0,1-1.10377-.91025v.05529a5.19653,5.19653,0,0,0-1.59933-1.43416,4.5669,4.5669,0,0,0-2.15166-.44132,5.28551,5.28551,0,0,0-2.75813.63427,1.83607,1.83607,0,0,0-1.0483,1.57221,1.79251,1.79251,0,0,0,1.021,1.76517,6.45324,6.45324,0,0,0,2.78546.49638,14.0338,14.0338,0,0,1,3.97206.5517,9.70226,9.70226,0,0,1,3.28193,1.65481,7.872,7.872,0,0,1,2.20627,2.70291A8.29547,8.29547,0,0,1,206.56,36.273a8.3564,8.3564,0,0,1-.82722,3.8338,7.8059,7.8059,0,0,1-2.234,2.7029,9.9377,9.9377,0,0,1-3.31005,1.62729,14.305,14.305,0,0,1-3.999.55186q-.44254,0-1.65482-.13867a10.30074,10.30074,0,0,1-2.7031-.7442,11.17286,11.17286,0,0,1-3.00657-1.903,9.71118,9.71118,0,0,1-2.50979-3.55786,2.45668,2.45668,0,0,1-.22024-1.10332,2.90933,2.90933,0,0,1,.85451-2.09617,2.83945,2.83945,0,0,1,2.12391-.88267,2.73459,2.73459,0,0,1,1.65523.52433,3.10455,3.10455,0,0,1,1.04746,1.29607,3.95177,3.95177,0,0,0,1.87548,1.95828,5.683,5.683,0,0,0,2.648.68955,7.45588,7.45588,0,0,0,3.06165-.5794A2.16626,2.16626,0,0,0,200.6578,36.273a2.17938,2.17938,0,0,0-1.24121-2.17894,7.37181,7.37181,0,0,0-3.11672-.5792,17.27123,17.27123,0,0,1-3.88842-.41361,8.42016,8.42016,0,0,1-3.08938-1.35155,6.192,6.192,0,0,1-2.01377-2.50978A9.35342,9.35342,0,0,1,186.59126,25.3511Z"
     id="path22"
     style="fill:#ffffff" />
  <path
     class="cls-1"
     d="M73.49371,57.32345h1.01615l2.427,6.09675,2.41709-6.09675h1.01594v7.014H79.709V58.14182l-2.46652,6.19562h-.62143l-2.46615-6.19562v6.19562h-.66123Z"
     id="path24"
     style="fill:#ffffff" />
  <path
     class="cls-1"
     d="M82.7958,58.2013A3.4097,3.4097,0,0,1,85.272,57.1852,3.45353,3.45353,0,0,1,87.78762,58.211a3.51771,3.51771,0,0,1,1.0752,2.57527,3.5634,3.5634,0,0,1-.92732,2.50533,3.50265,3.50265,0,0,1-2.67335,1.18416A3.66341,3.66341,0,0,1,82.7958,58.2013Zm2.51562,5.61279a2.98154,2.98154,0,0,0-.04927-5.95845,2.71345,2.71345,0,0,0-1.76594.65156,3.07948,3.07948,0,0,0-1.07542,2.28867A2.90647,2.90647,0,0,0,85.31142,63.81409Z"
     id="path26"
     style="fill:#ffffff" />
  <path
     class="cls-1"
     d="M92.26552,57.32345a3.45318,3.45318,0,0,1,2.37749.69016,3.62579,3.62579,0,0,1,1.26274,2.802A3.51636,3.51636,0,0,1,94.505,63.75544a3.95931,3.95931,0,0,1-2.54535.582h-1.687v-7.014Zm-1.31216,6.35317h1.43053A2.56829,2.56829,0,0,0,95.166,60.79587a2.92,2.92,0,0,0-.947-2.24928,2.753,2.753,0,0,0-2.00294-.55269H90.95336Z"
     id="path28"
     style="fill:#ffffff" />
  <path
     class="cls-1"
     d="M100.94618,60.4703v.69094h-2.9497v2.49529h2.9497v.68091H97.306v-7.014h3.64023v.69016h-2.9497V60.4703Z"
     id="path30"
     style="fill:#ffffff" />
  <path
     class="cls-1"
     d="M102.71155,64.33744v-7.014h.69053v6.33308h2.46636v.68091Z"
     id="path32"
     style="fill:#ffffff" />
  <path
     class="cls-1"
     d="M107.60323,58.2013a3.40937,3.40937,0,0,1,2.47619-1.0161,3.45388,3.45388,0,0,1,2.51563,1.02577,3.51788,3.51788,0,0,1,1.07521,2.57527,3.5643,3.5643,0,0,1-.92733,2.50533,3.50271,3.50271,0,0,1-2.67335,1.18416,3.66341,3.66341,0,0,1-2.46635-6.27443Zm2.51558,5.61279a2.98155,2.98155,0,0,0-.04923-5.95845,2.71442,2.71442,0,0,0-1.76615.65156,3.08,3.08,0,0,0-1.07521,2.28867A2.90646,2.90646,0,0,0,110.11881,63.81409Z"
     id="path34"
     style="fill:#ffffff" />
  <path
     class="cls-1"
     d="M120.30841,57.32345a3.45424,3.45424,0,0,1,2.37754.69016,3.62554,3.62554,0,0,1,1.26249,2.802,3.51447,3.51447,0,0,1-1.4012,2.93986,3.95771,3.95771,0,0,1-2.54513.582h-1.68655v-7.014Zm-1.31195,6.35317h1.43012a2.56824,2.56824,0,0,0,2.78189-2.88075,2.92039,2.92039,0,0,0-.94659-2.24928,2.75364,2.75364,0,0,0-2.0029-.55269h-1.26252Z"
     id="path36"
     style="fill:#ffffff" />
  <path
     class="cls-1"
     d="M128.98887,60.4703v.69094h-2.94949v2.49529h2.94949v.68091h-3.64v-7.014h3.64v.69016h-2.94949V60.4703Z"
     id="path38"
     style="fill:#ffffff" />
  <path
     class="cls-4"
     d="M134.39426,64.33744H132.9738l2.72278-7.014h1.18334l2.68421,7.014h-1.47034l-.55227-1.46993H134.9369Zm1.86464-5.03117-.8485,2.25932h1.67692Z"
     id="path40"
     style="fill:#ffffff" />
  <path
     class="cls-4"
     d="M143.39308,58.55622h-1.322v5.78122h-1.371V58.55622h-1.32241V57.32345h4.01544Z"
     id="path42"
     style="fill:#ffffff" />
  <path
     class="cls-4"
     d="M144.488,64.33744v-7.014H148.276v1.23277h-2.427v1.59814h2.427v1.2135h-2.427v1.7364h2.427v1.23318Z"
     id="path44"
     style="fill:#ffffff" />
  <path
     class="cls-4"
     d="M149.8733,64.33744v-7.014h1.30229l2.90047,4.47852V57.32345h1.34172v7.014h-1.27257l-2.91978-4.61678v4.61678Z"
     id="path46"
     style="fill:#ffffff" />
  <path
     class="cls-4"
     d="M161.95744,59.40472a1.93356,1.93356,0,0,0-1.64716-.8087,2.04186,2.04186,0,0,0-1.48.62142,2.29078,2.29078,0,0,0-.65114,1.58847,2.17484,2.17484,0,0,0,2.13111,2.269,1.88425,1.88425,0,0,0,1.59814-.75042h1.67692a3.36061,3.36061,0,0,1-3.26543,2.15124,3.43047,3.43047,0,0,1-2.65364-1.20383,3.65364,3.65364,0,0,1-.9076-2.48566,3.58365,3.58365,0,0,1,1.09488-2.58494,3.55334,3.55334,0,0,1,5.78122,1.20342Z"
     id="path48"
     style="fill:#ffffff" />
  <path
     class="cls-4"
     d="M164.92623,57.32345h1.37147v7.014h-1.37147Z"
     id="path50"
     style="fill:#ffffff" />
  <path
     class="cls-4"
     d="M168.23105,58.76321a3.61562,3.61562,0,0,1,6.6,2.023,3.6364,3.6364,0,0,1-1.01652,2.58411,3.56644,3.56644,0,0,1-2.58494,1.10538,3.442,3.442,0,0,1-2.61388-1.10538,3.64166,3.64166,0,0,1-.99643-2.55477A3.54461,3.54461,0,0,1,168.23105,58.76321Zm1.4205,3.56128a2.154,2.154,0,0,0,1.57805.73075,2.18739,2.18739,0,0,0,2.1705-2.28872,2.17034,2.17034,0,0,0-4.34064,0A2.241,2.241,0,0,0,169.65155,62.32449Zm1.8546-7.33956h1.06553l-1.42086,1.67692h-.63106Z"
     id="path52"
     style="fill:#ffffff" />
  <path
     class="cls-4"
     d="M176.14219,64.33744v-7.014h1.30191L180.345,61.802V57.32345h1.3413v7.014h-1.273l-2.91977-4.61678v4.61678Z"
     id="path54"
     style="fill:#ffffff" />
  <path
     class="cls-4"
     d="M74.214,72.44029v.09932a.86264.86264,0,0,0,.84834.97589.8444.8444,0,0,0,.89773-.91724c0-.74963-.41439-.79906-1.17387-1.03581A1.91975,1.91975,0,0,1,73.178,69.64877a1.97264,1.97264,0,0,1,2.0027-2.18017,1.88083,1.88083,0,0,1,1.92371,2.02221h-1.243v-.05948a.69925.69925,0,0,0-.73-.74964.70637.70637,0,0,0-.73013.789.67366.67366,0,0,0,.1676.48354c.27635.30627.74.34565,1.29249.533a1.81694,1.81694,0,0,1,1.41083,1.87428,2.17006,2.17006,0,0,1-2.20006,2.39725A2.112,2.112,0,0,1,72.961,72.44029Z"
     id="path56"
     style="fill:#ffffff" />
  <path
     class="cls-4"
     d="M78.8698,69.04707a3.61505,3.61505,0,0,1,6.59976,2.02179,3.63914,3.63914,0,0,1-1.01611,2.58535,3.56678,3.56678,0,0,1-2.58453,1.10456,3.44588,3.44588,0,0,1-2.61428-1.10456A3.64385,3.64385,0,0,1,78.258,71.099,3.54519,3.54519,0,0,1,78.8698,69.04707Zm1.42066,3.56124a2.15638,2.15638,0,0,0,1.57846.73037,2.18757,2.18757,0,0,0,2.1703-2.28949,2.17044,2.17044,0,0,0-4.34084,0A2.24316,2.24316,0,0,0,80.29046,72.60831Z"
     id="path58"
     style="fill:#ffffff" />
  <path
     class="cls-4"
     d="M91.69373,69.68817a1.93384,1.93384,0,0,0-1.64736-.80953,2.04325,2.04325,0,0,0-1.48.62221,2.28989,2.28989,0,0,0-.65118,1.58809,2.17473,2.17473,0,0,0,2.13116,2.269,1.88516,1.88516,0,0,0,1.59814-.74964h1.67691a3.36071,3.36071,0,0,1-3.26522,2.15046,3.42973,3.42973,0,0,1-2.65388-1.20388,3.65319,3.65319,0,0,1-.90756-2.486,3.58344,3.58344,0,0,1,1.09509-2.58411,3.55308,3.55308,0,0,1,5.781,1.20342Z"
     id="path60"
     style="fill:#ffffff" />
  <path
     class="cls-4"
     d="M94.66232,67.60649h1.37143v7.01439H94.66232Z"
     id="path62"
     style="fill:#ffffff" />
  <path
     class="cls-4"
     d="M97.96672,69.04707a3.61518,3.61518,0,0,1,6.6,2.02179,3.639,3.639,0,0,1-1.01615,2.58535,3.567,3.567,0,0,1-2.58452,1.10456,3.44585,3.44585,0,0,1-2.61445-1.10456,3.64454,3.64454,0,0,1-.99643-2.55518A3.54537,3.54537,0,0,1,97.96672,69.04707Zm1.42091,3.56124a2.156,2.156,0,0,0,1.57843.73037,2.18756,2.18756,0,0,0,2.17013-2.28949,2.17034,2.17034,0,0,0-4.34064,0A2.24225,2.24225,0,0,0,99.38763,72.60831Z"
     id="path64"
     style="fill:#ffffff" />
  <path
     class="cls-4"
     d="M106.70649,72.44029v.09932a.86278.86278,0,0,0,.8485.97589.84427.84427,0,0,0,.89756-.91724c0-.74963-.41419-.79906-1.17391-1.03581a1.91959,1.91959,0,0,1-1.608-1.91368,1.97259,1.97259,0,0,1,2.00249-2.18017,1.881,1.881,0,0,1,1.924,2.02221h-1.243v-.05948a.73138.73138,0,1,0-1.46026.03939.67287.67287,0,0,0,.16781.48354c.27634.30627.74.34565,1.29245.533a1.817,1.817,0,0,1,1.41066,1.87428,2.1699,2.1699,0,0,1-2.19985,2.39725,2.112,2.112,0,0,1-2.11124-2.31848Z"
     id="path66"
     style="fill:#ffffff" />
  <path
     class="cls-4"
     d="M111.71074,74.62088h-1.42087l2.72278-7.01439h1.18375l2.68339,7.01439h-1.46993l-.55227-1.47034H112.253ZM113.575,69.5893l-.84809,2.25933h1.67692Z"
     id="path68"
     style="fill:#ffffff" />
  <path
     class="cls-4"
     d="M117.629,74.62088V67.60649h1.30191l2.90088,4.47889V67.60649h1.34167v7.01439h-1.27335l-2.91977-4.61718v4.61718Z"
     id="path70"
     style="fill:#ffffff" />
  <path
     class="cls-4"
     d="M124.81023,67.60649h1.37144v7.01439h-1.37144Z"
     id="path72"
     style="fill:#ffffff" />
  <path
     class="cls-4"
     d="M131.30129,68.83925h-1.322v5.78163h-1.37144V68.83925h-1.32163V67.60649h4.01507Z"
     id="path74"
     style="fill:#ffffff" />
  <path
     class="cls-4"
     d="M132.4577,74.62088h-1.4209l2.72282-7.01439h1.1837l2.68344,7.01439h-1.46993l-.55228-1.47034H132.9999Zm1.86424-5.03158-.84854,2.25933h1.67733Z"
     id="path76"
     style="fill:#ffffff" />
  <path
     class="cls-4"
     d="M138.376,74.62088V67.60649h1.66729a4.50566,4.50566,0,0,1,1.84493.23674,2.16405,2.16405,0,0,1-.44456,4.05487l1.75652,2.72278h-1.63835L139.747,71.36509v3.25579Zm1.67692-3.60067c1.115,0,1.69664-.4148,1.69664-1.18412,0-.75968-.49322-1.08525-1.48965-1.08525H139.747v2.26937Z"
     id="path78"
     style="fill:#ffffff" />
  <path
     class="cls-4"
     d="M144.45223,67.60649h1.371v7.01439h-1.371Z"
     id="path80"
     style="fill:#ffffff" />
  <path
     class="cls-4"
     d="M147.92424,74.62088h-1.42087l2.72279-7.01439h1.18416l2.68338,7.01439h-1.47034l-.55227-1.47034h-2.60462Zm1.86465-5.03158-.84814,2.25933h1.677Z"
     id="path82"
     style="fill:#ffffff" />
  <path
     class="cls-1"
     d="M157.13729,74.62088V67.60649h.69054v7.01439Z"
     id="path84"
     style="fill:#ffffff" />
  <path
     class="cls-1"
     d="M164.161,67.60649h.6809v7.01439H164.013l-3.84746-6.186.07878,6.186h-.6809V67.60649h.82924l3.847,6.17593Z"
     id="path86"
     style="fill:#ffffff" />
  <path
     class="cls-1"
     d="M167.42556,74.62088V68.297h-1.40037v-.69053h3.49209V68.297h-1.40119v6.32386Z"
     id="path88"
     style="fill:#ffffff" />
  <path
     class="cls-1"
     d="M174.321,70.75333v.691h-2.94949V73.94H174.321v.6809h-3.64V67.60649h3.64V68.297h-2.94949v2.45631Z"
     id="path90"
     style="fill:#ffffff" />
  <path
     class="cls-1"
     d="M182.89333,71.25659a3.58357,3.58357,0,1,1-6.067-2.77184,3.60993,3.60993,0,0,1,5.69239.88748h-.84891a2.8164,2.8164,0,0,0-2.32806-1.23278,2.981,2.981,0,0,0,.01,5.95891,2.82559,2.82559,0,0,0,2.72278-2.22039H178.533v-.62138Z"
     id="path92"
     style="fill:#ffffff" />
  <path
     class="cls-1"
     d="M184.88536,74.62088h-.6809V67.60649h1.88432a2.74094,2.74094,0,0,1,1.687.40476,2.242,2.242,0,0,1,.90719,1.82484,1.94249,1.94249,0,0,1-1.69622,2.04188l1.69622,2.74291h-.81836l-2.08169-3.38359h.66118a1.383,1.383,0,0,0,1.49928-1.39115,1.55673,1.55673,0,0,0-.50322-1.20384,2.14353,2.14353,0,0,0-1.53866-.34528h-1.01615Z"
     id="path94"
     style="fill:#ffffff" />
  <path
     class="cls-1"
     d="M189.3438,74.62088l2.72279-7.01439h.82882l2.71274,7.01439h-.74l-.83846-2.20026h-3.1175l-.83846,2.20026Zm3.11751-6.35321-1.312,3.52148h2.644Z"
     id="path96"
     style="fill:#ffffff" />
  <path
     class="cls-1"
     d="M198.57731,67.60649a3.45668,3.45668,0,0,1,2.37712.69053,3.6261,3.6261,0,0,1,1.26294,2.802,3.51317,3.51317,0,0,1-1.40119,2.93945,3.95855,3.95855,0,0,1-2.54514.5824h-1.68659V67.60649Zm-1.31274,6.35317h1.43095a2.568,2.568,0,0,0,2.78184-2.88076,2.91814,2.91814,0,0,0-.94736-2.24928,2.75092,2.75092,0,0,0-2.00249-.55228h-1.26294Z"
     id="path98"
     style="fill:#ffffff" />
  <path
     class="cls-1"
     d="M202.7198,74.62088l2.72279-7.01439h.82882l2.71274,7.01439h-.74l-.83846-2.20026h-3.11754l-.83846,2.20026Zm3.11751-6.35321-1.312,3.52148h2.64322Z"
     id="path100"
     style="fill:#ffffff" />
  <path
     class="cls-3"
     d="M77.03549,81.25381v.3457H73.82916v2.95912h3.20633v.3457H73.48388V77.88952H77.134v.34566H73.82916v3.01863Z"
     id="path102"
     style="fill:#ffffff" />
  <path
     class="cls-3"
     d="M83.50645,77.88952h.3453v7.01481h-.46367L79.09667,78.3638v6.54053h-.34525V77.88952h.43411l4.32092,6.5409Z"
     id="path104"
     style="fill:#ffffff" />
  <path
     class="cls-3"
     d="M92.12784,78.07725a3.0821,3.0821,0,0,0-2.02241.73033,3.43871,3.43871,0,0,0-.296,4.94235,3.23482,3.23482,0,0,0,2.269.99643,3.02916,3.02916,0,0,0,2.76238-1.57888h.42427a3.36011,3.36011,0,0,1-3.06828,1.8751,3.66253,3.66253,0,0,1-2.58473-6.27439,3.39425,3.39425,0,0,1,2.4762-1.01655,3.51562,3.51562,0,0,1,3.20632,1.95347H94.89A3.16882,3.16882,0,0,0,92.12784,78.07725Z"
     id="path106"
     style="fill:#ffffff" />
  <path
     class="cls-3"
     d="M95.84606,84.90433l2.88076-7.01481h.48333l2.89063,7.01481h-.36517l-.99643-2.44705H97.20746L96.211,84.90433ZM98.9734,78.1757l-1.6279,3.956h3.24576Z"
     id="path108"
     style="fill:#ffffff" />
  <path
     class="cls-3"
     d="M103.13438,83.02a1.654,1.654,0,1,0,3.305.02934c0-1.13427-.74-1.38106-2.01257-1.82485-.96688-.33561-1.44017-.79906-1.44017-1.66724a1.76991,1.76991,0,0,1,1.87428-1.80558,1.685,1.685,0,0,1,1.766,1.77623h-.35534c-.09849-.97716-.582-1.49-1.39094-1.49a1.46327,1.46327,0,0,0-1.53907,1.5294,1.09732,1.09732,0,0,0,.5328,1.03541,9.75723,9.75723,0,0,0,1.61782.65114,1.77118,1.77118,0,0,1,1.30233,1.78546,1.99778,1.99778,0,1,1-3.9954-.0193Z"
     id="path110"
     style="fill:#ffffff" />
  <path
     class="cls-3"
     d="M109.19112,84.90433V78.24485h-1.62769v-.35533h3.6105v.35533h-1.62769v6.65948Z"
     id="path112"
     style="fill:#ffffff" />
  <path
     class="cls-3"
     d="M112.308,84.90433V77.88952h.36537v7.01481Z"
     id="path114"
     style="fill:#ffffff" />
  <path
     class="cls-3"
     d="M114.84351,77.88952v6.66911h2.75175v.3457h-3.09741V77.88952Z"
     id="path116"
     style="fill:#ffffff" />
  <path
     class="cls-3"
     d="M119.27218,77.88952v6.66911h2.75254v.3457H118.9269V77.88952Z"
     id="path118"
     style="fill:#ffffff" />
  <path
     class="cls-3"
     d="M122.60915,84.90433l2.88116-7.01481h.48317l2.89038,7.01481h-.365l-.99643-2.44705H123.971l-.9968,2.44705Zm3.12717-6.72863-1.62749,3.956h3.24572Z"
     id="path120"
     style="fill:#ffffff" />
  <path
     class="cls-3"
     d="M134.76247,84.90433h-.365V82.49667l-2.28872-4.60715h.39472l2.07123,4.22247,2.08168-4.22247h.38468l-2.27863,4.60715Z"
     id="path122"
     style="fill:#ffffff" />
  <path
     class="cls-3"
     d="M141.57868,77.88952v6.66911h2.75176v.3457H141.233V77.88952Z"
     id="path124"
     style="fill:#ffffff" />
  <path
     class="cls-3"
     d="M149.21331,81.25381v.3457h-3.206v2.95912h3.206v.3457h-3.55124V77.88952h3.65052v.34566h-3.30523v3.01863Z"
     id="path126"
     style="fill:#ffffff" />
  <path
     class="cls-3"
     d="M151.64024,78.76819a3.40831,3.40831,0,0,1,2.476-1.01655,3.45367,3.45367,0,0,1,2.51538,1.02618,3.51572,3.51572,0,0,1,1.07562,2.5749,3.56653,3.56653,0,0,1-.92769,2.50575,3.50409,3.50409,0,0,1-2.673,1.18411,3.66323,3.66323,0,0,1-2.46636-6.27439Zm.17727,4.98174a3.2221,3.2221,0,0,0,2.28909.99643,3.36,3.36,0,0,0,2.56444-5.3865,3.1339,3.1339,0,0,0-4.78479-.375,3.48331,3.48331,0,0,0-.06874,4.76511Zm2.77226-8.13867h.52252l-1.22314,1.57806h-.30589Z"
     id="path128"
     style="fill:#ffffff" />
  <path
     class="cls-3"
     d="M163.90128,77.88952h.34565v7.01481h-.46382L159.4919,78.3638v6.54053h-.34565V77.88952h.4341l4.32093,6.5409Z"
     id="path130"
     style="fill:#ffffff" />
</svg>
